<?xml version="1.0" encoding="UTF-8"?>
<svg xmlns="http://www.w3.org/2000/svg" xmlns:xlink="http://www.w3.org/1999/xlink" version="1.1" viewBox="515.29 533.29 750 500" preserveAspectRatio="xMidYMid slice">
  <!-- Generator: Adobe Illustrator 30.6.0, SVG Export Plug-In . SVG Version: 2.1.4 Build 109)  -->
  <defs>
    <style>
      .st0 {
        fill: none;
      }

      .st1 {
        fill: url(#radial-gradient1);
        opacity: .47;
      }

      .st1, .st2, .st3, .st4 {
        mix-blend-mode: overlay;
      }

      .st5 {
        fill: url(#linear-gradient2);
      }

      .st6 {
        fill: url(#linear-gradient1);
      }

      .st7 {
        fill: url(#linear-gradient3);
      }

      .st8 {
        fill: url(#linear-gradient6);
      }

      .st9 {
        fill: url(#linear-gradient8);
      }

      .st10 {
        fill: url(#linear-gradient7);
      }

      .st11 {
        fill: url(#linear-gradient5);
      }

      .st12 {
        fill: url(#linear-gradient4);
      }

      .st2 {
        opacity: .1;
      }

      .st2, .st3 {
        fill: #fff;
      }

      .st3, .st13 {
        opacity: .32;
      }

      .st13 {
        fill: #e5eeea;
      }

      .st14 {
        fill: url(#linear-gradient);
      }

      .st15 {
        opacity: .15;
      }

      .st15, .st16 {
        fill: #183c43;
      }

      .st16 {
        opacity: .33;
      }

      .st17 {
        isolation: isolate;
      }

      .st18 {
        fill: #24565d;
      }

      .st4 {
        fill: url(#radial-gradient);
        opacity: .9;
      }

      .st19 {
        display: none;
      }

      .st20 {
        clip-path: url(#clippath);
      }
    </style>
    <linearGradient id="linear-gradient" x1="890.29" y1="745.89" x2="890.29" y2="505.89" gradientUnits="userSpaceOnUse">
      <stop offset="0" stop-color="#d5e7e4"/>
      <stop offset=".18" stop-color="#c6dcda"/>
      <stop offset=".46" stop-color="#a9c9cb"/>
      <stop offset=".82" stop-color="#86b2b7"/>
      <stop offset="1" stop-color="#6f9fa7"/>
    </linearGradient>
    <clipPath id="clippath">
      <rect class="st0" x="515.29" y="533.29" width="750" height="500"/>
    </clipPath>
    <linearGradient id="linear-gradient1" x1="804.46" y1="862.73" x2="804.46" y2="716.99" xlink:href="#linear-gradient"/>
    <linearGradient id="linear-gradient2" x1="949.96" y1="877.63" x2="949.96" y2="732.03" gradientUnits="userSpaceOnUse">
      <stop offset=".03" stop-color="#bcd7d6"/>
      <stop offset=".32" stop-color="#9fc4c4"/>
      <stop offset=".92" stop-color="#659aa0"/>
      <stop offset="1" stop-color="#588b92"/>
    </linearGradient>
    <linearGradient id="linear-gradient3" x1="880.63" y1="956.29" x2="880.63" y2="815.22" gradientUnits="userSpaceOnUse">
      <stop offset="0" stop-color="#83acab"/>
      <stop offset=".18" stop-color="#719d9d"/>
      <stop offset=".53" stop-color="#4f7f81"/>
      <stop offset=".82" stop-color="#3c696c"/>
      <stop offset="1" stop-color="#315d62"/>
    </linearGradient>
    <linearGradient id="linear-gradient4" x1="881.79" y1="1005.29" x2="881.79" y2="772.29" gradientUnits="userSpaceOnUse">
      <stop offset="0" stop-color="#537e7d"/>
      <stop offset=".09" stop-color="#456e6f"/>
      <stop offset=".32" stop-color="#34595d"/>
      <stop offset=".55" stop-color="#27494f"/>
      <stop offset=".78" stop-color="#1d3d44"/>
      <stop offset="1" stop-color="#173840"/>
    </linearGradient>
    <radialGradient id="radial-gradient" cx="1211.29" cy="871.06" fx="1211.29" fy="871.06" r="320.75" gradientUnits="userSpaceOnUse">
      <stop offset=".05" stop-color="#8fd4c2"/>
      <stop offset="1" stop-color="#8fd4c2" stop-opacity="0"/>
    </radialGradient>
    <radialGradient id="radial-gradient1" cx="533.29" cy="533.29" fx="533.29" fy="533.29" r="533.29" xlink:href="#radial-gradient"/>
    <linearGradient id="linear-gradient5" x1="813.96" y1="961.29" x2="813.96" y2="839.29" gradientUnits="userSpaceOnUse">
      <stop offset="0" stop-color="#356064"/>
      <stop offset=".62" stop-color="#20454b"/>
      <stop offset="1" stop-color="#15353d"/>
    </linearGradient>
    <linearGradient id="linear-gradient6" x1="897.73" y1="1029.3" x2="897.73" y2="840.59" gradientUnits="userSpaceOnUse">
      <stop offset=".2" stop-color="#264c52"/>
      <stop offset=".4" stop-color="#1e4047"/>
      <stop offset=".77" stop-color="#14333b"/>
      <stop offset="1" stop-color="#0f2932"/>
    </linearGradient>
    <linearGradient id="linear-gradient7" x1="677.39" y1="1116.29" x2="677.39" y2="1004.41" gradientUnits="userSpaceOnUse">
      <stop offset=".34" stop-color="#264c52"/>
      <stop offset=".5" stop-color="#1e4047"/>
      <stop offset=".81" stop-color="#14333b"/>
      <stop offset="1" stop-color="#0f2932"/>
    </linearGradient>
    <linearGradient id="linear-gradient8" x1="1025.42" y1="1108.29" x2="1025.42" y2="987.03" gradientUnits="userSpaceOnUse">
      <stop offset=".05" stop-color="#264c52"/>
      <stop offset=".44" stop-color="#17333c"/>
      <stop offset=".78" stop-color="#0e2731"/>
      <stop offset="1" stop-color="#0a222c"/>
    </linearGradient>
  </defs>
  <g class="st17">
    <g id="BACKGROUND">
      <rect class="st14" x="515.29" y="533.29" width="750" height="500"/>
    </g>
    <g id="OBJECTS">
      <g class="st20">
        <path class="st6" d="M508.83,772.29l37.47-9h32l48.5-14,89,31,36,3s73-38.33,80-40.17c7-1.83,43-4.33,43-4.33l62.5,10.5,169.33,81.75v40.02H502.29l6.53-98.77Z"/>
        <g>
          <polygon class="st5" points="793.29 816.21 858.8 769.63 905.79 749.29 952.13 697.63 961.42 688.29 976.63 688.29 997.29 700.96 1011.29 700.29 1019.29 710.96 1070.63 752.25 1106.63 864.28 793.29 864.28 793.29 816.21"/>
          <polygon class="st15" points="858.8 769.63 913.29 798.79 995.29 864.28 1011.29 864.28 949.96 791.63 940.79 772.29 922.29 767.29 905.79 749.29 858.8 769.63"/>
          <polygon class="st15" points="976.63 688.29 996.29 722.79 1025.42 733.63 1071.79 772.79 1088.15 806.79 1070.63 752.25 1019.29 710.96 1011.29 700.29 997.29 700.96 976.63 688.29"/>
        </g>
        <g>
          <polygon class="st7" points="1271.29 743.13 1239.96 733.63 1224.63 738.38 1185.29 750.29 1111.29 802.96 1005.29 818.96 938.36 812.96 907.52 805.63 890.29 808.96 827.22 791.63 805.29 780.29 775.29 780.96 761.29 791.63 741.96 792.29 673.29 810.96 588.63 823.63 489.96 843.1 489.96 928.46 1271.29 928.46 1271.29 743.13"/>
          <polygon class="st3" points="805.29 780.29 778.63 785.63 766.96 799.96 737.63 798.29 673.29 810.96 741.96 792.29 761.29 791.63 775.29 780.96 805.29 780.29"/>
          <polygon class="st15" points="864.96 836.96 828.63 859.29 757.29 867.29 703.71 928.46 1040.35 928.46 1007.46 818.63 1005.29 818.96 938.36 812.96 907.52 805.63 890.29 808.96 827.22 791.63 864.96 823.63 864.96 836.96"/>
        </g>
        <g>
          <path class="st12" d="M481.29,871.29s43-69,61-72,39,0,39,0c0,0,74.2,65,96.1,72,21.9,7,114.9,8,114.9,8l67.93-14,51.07-17,13.82-19,16.79-5.67h8.35s16.04-27.33,20.04-40.33,13-22,13-22c0,0,1-16,7-17.5s16.5,0,16.5,0l10.5,1.5,29-35s11.5-17,17-19.5,14.5-17.5,14.5-17.5h23.5l39,15s15.5,31.5,27,37.5,24,18,24,18c0,0,17,36.5,25,43s22,17.5,22,17.5l44,47v194H481.29v-174Z"/>
          <path class="st16" d="M1039.79,829.79l24.07,36.76,9.43,22.74,47-12s-33.5-50.5-45.5-60.75-32-19.75-32-19.75l-25.5-51.5-10.5-1.5s-10.5-1.5-16.5,0c0,0,20,29,23.5,46.5s26,39.5,26,39.5Z"/>
          <path class="st16" d="M1171.79,758.29l21,61,4.5-16.5,37.5,36,47.5,25.49v-12.99l-44-47s-14-11-22-17.5-25-43-25-43c0,0-12.5-12-24-18s-27-37.5-27-37.5l17,46,14.5,24Z"/>
          <path class="st3" d="M481.29,908.14l27.53-31.35,22.97-33.69,23.57-45.05h0c-4.31.16-8.77.53-13.07,1.24-18,3-61,72-61,72v36.85Z"/>
        </g>
        <circle class="st4" cx="1211.29" cy="871.06" r="320.75"/>
        <circle class="st1" cx="533.29" cy="533.29" r="533.29"/>
        <g>
          <path class="st11" d="M1129.96,997.64s-96.83-33.01-110.42-37.85c-13.58-4.83-57.91-33.5-67.41-37.5s-35.74-4-35.74-4l-11.35-9.33-21.74-5.33-8.56-3.33-21.81-20.67s-21.22-1.33-33.76-4c-12.54-2.67-34.54-6.67-34.54-6.67l-45.33-20.67-54.67-20.67-38.67-4-15.33,14.67s-10.67,32.67-20,38c-9.33,5.33-32,17-32,17l-24.67,17.34h-20.67l-35.33,33.56v89.1h632v-35.65Z"/>
          <path class="st2" d="M589.29,893.29l36-15.67,28.67-34.53,30.67-15.47-38.67-4-15.33,14.67s-10.67,32.67-20,38c-9.33,5.33-32,17-32,17l-24.67,17.34,11.33.33,24-17.67Z"/>
        </g>
        <path class="st8" d="M508.83,1013.96s165.13-48.33,166.13-49c1-.67,10,.33,13,0,3-.33,27.33-12,28.67-12.67,1.33-.67,9,.33,15,5s8.33-2,9.33-1,10.33,11.33,11,10c.67-1.33,5.33.67,7.33,0s16.33-9.33,23.67-13c7.33-3.67,13.33-2.33,26.67-4,13.33-1.67,33-8.33,36.33-9.33,3.33-1,15.33,4.67,25.46,6.33,10.13,1.67,13.87-3,18.87-2.67,11,.73,25-4,28.85-5.33,3.85-1.33,42.28-11.33,42.28-11.33l108.54-64,22.67-19.86s21.33,5.19,31.33,1.19,24.67,3.33,24.67,3.33c0,0,29.33,7.33,42,11.33,12.67,4,33.33,21.33,33.33,21.33l26.67,13h36v152H508.83v-31.33Z"/>
        <g>
          <path class="st13" d="M1099.96,522.96s-30.67,18.67-44.67,21.33-8,3.33-20,4.67c-12,1.33-12.67-2.67-26.67,0-14,2.67-24,2-27.33,8.67-3.33,6.67,21.33,2.67,20,8.67-1.33,6-19.33,4-24.67,7.33-5.33,3.33,18.67,3.33-17.33,7.33s-28.67-8-51.33,6.67c-22.67,14.67-22,12-44.67,15.33-22.67,3.33-42,4.67-28.67,13.33,13.33,8.67,71.33,7.33,75.33,12s-33.33,6.67-58,6c-24.67-.67-39.33-8.42-70,.12-30.67,8.54-33.33,14.54-64,14.54s-38-1.33-90,4c-52,5.33-46.32-.67-80.67,0-34.34.67-38.47-.67-38.47-.67v-126l591.13-3.33Z"/>
          <path class="st13" d="M493.29,612.29s44.63-4,62.07-3c17.43,1,36.93,7,58.43,9s66.67,2.5,70.83,9c4.17,6.5,10.67,11,26.67,13s15,10.29,31.5,14.9,45,10.6,45,10.6c0,0-34,2-54,0s-24-3.5-40-1.5-21-6.5-36-6-15,3.28-26.5,8.39-8.5,12.61-37,6.61-33.5-1.5-54.5,0-37,2-39.5,0-7-61-7-61Z"/>
          <path class="st13" d="M810.29,670.79s15,3.94,39.5,4.72,50.5-1.78,70.5,0,46-3.72,63.5-4.72,43.5-1,46.5,0,21-.75,21-.75c0,0-16.5-5.25-32.5-5.75s-29,.5-39-3.5-24.17-.5-29.83,0c-5.67.5-22.17,6-38.67,4s-37-1.5-37-1.5l-64,7.5Z"/>
          <path class="st13" d="M1062.29,652.29s17.5-8.21,41.5-7.1,36,6.19,47.5-.1c11.5-6.29,16-8.29,30-9.29s17,4.5,32.5,5,51.5-3,51.5-3v50.5s-23-5-39.5-6-21.5-1.5-36-8-12.5-3.5-34-6-14,1.38-35-6.31-49.5-13.19-58.5-9.69Z"/>
          <path class="st13" d="M1122.79,595.79s26.5-7.5,35.5-12,16,0,26.5,2.5,19.5,5.58,30.5,2.54c11-3.04,19.5.96,26.5,2.46s29.5,1,29.5,1v13s-43-2-54-3.5-12,4.5-29.5-1.5-15-10.42-31-6.71c-16,3.71-34,2.21-34,2.21Z"/>
        </g>
        <g class="st19">
          <path class="st18" d="M1001.18,657.08s-3.98-1.79-5.91,0c0,0,3.71-.55,5.91,2.2,2.2-2.75,5.91-2.2,5.91-2.2-1.92-1.79-5.91,0-5.91,0Z"/>
          <path class="st18" d="M854.15,714.04s-5.01-2.25-7.43,0c0,0,4.66-.69,7.43,2.76,2.76-3.46,7.43-2.76,7.43-2.76-2.42-2.25-7.43,0-7.43,0Z"/>
          <path class="st18" d="M1065.16,630.87s-6.65-2.98-9.86,0c0,0,6.19-.92,9.86,3.67,3.67-4.59,9.86-3.67,9.86-3.67-3.21-2.98-9.86,0-9.86,0Z"/>
          <path class="st18" d="M1020.29,651.41s-2.34-1.05-3.47,0c0,0,2.18-.32,3.47,1.29,1.29-1.61,3.47-1.29,3.47-1.29-1.13-1.05-3.47,0-3.47,0Z"/>
          <path class="st18" d="M1178.03,707.58s-2.19-.98-3.24,0c0,0,2.04-.3,3.24,1.21,1.21-1.51,3.24-1.21,3.24-1.21-1.06-.98-3.24,0-3.24,0Z"/>
          <path class="st18" d="M872.03,720.29s-2.19-.98-3.24,0c0,0,2.04-.3,3.24,1.21,1.21-1.51,3.24-1.21,3.24-1.21-1.06-.98-3.24,0-3.24,0Z"/>
          <path class="st18" d="M817.43,733.21s-2.34-1.05-3.47,0c0,0,2.18-.32,3.47,1.29,1.29-1.61,3.47-1.29,3.47-1.29-1.13-1.05-3.47,0-3.47,0Z"/>
        </g>
        <path class="st10" d="M845.96,1050.29s-7.37-21-11.85-27.33c-4.48-6.33-13.48-11.35-13.48-11.35,0,0-11.67,1.31-15.33,0-3.67-1.31-3.67-9.38-6-10.85-2.33-1.47-4.33-17.47-9.67-18.47-.67,5.33,4.33,12.06-2,15.7-6.33,3.64-9.33,8.05-9.33,10.84s-3,7.46-3,7.46c0,0-1.58-4.62-4.98-5.59-3.4-.97-4.85.75-4.85.75l-.97-2.87s-4.69,2.28-6.47.18-3.4-3.8-3.4-3.8c0,0-3.72,2.68-4.85.09s-1.94-8.26-3.4-9.23c-1.46-.97,0-13.52,0-13.52,0,0-4.05,7.21-4.37,12.06-.32,4.85-2.75,7.13-4.85,10.69-2.1,3.55-.81,7.13-2.27,11.25-1.46,4.12-5.34,6.06-5.99,3.15-.65-2.91,1.13-4.85-2.59-4.21-3.72.65-5.99,1.94-5.99,1.94,0,0,1.46-3.35-1.62-5.72s-2.59,1.48-5.34-2.87-7.44.62-10.19-2.19c-2.75-2.81-4.21-7.58-4.21-7.58,0,0,0-5.1-1.13-7.69s-4.21-1.94-4.21-1.94c0,0-.32-5.5-3.56-9.39-3.24-3.88-1.78-5.66-2.75-7.93-.97-2.27-3.72-3.85-4.21-2.57s-.65,7.43-3.56,10.5c-2.91,3.07-5.66-2.43-8.09,1.62s-4.53,6.8-4.53,6.8c0,0-6.47-2.59-7.61-4.37-1.13-1.78-.97-4.37-2.43-5.18-1.46-.81-2.43-13.92-4.21-14.56-1.78-.65,0,4.08-.97,5.19s-7.77-.66-7.61,6.62c.16,7.28-4.53-4.05-4.53-4.05l-2.75-5.99s-1.94-14.24-3.24-12.14c-1.29,2.1-1.78,10.84-1.78,10.84,0,0-3.4,1.94-4.05,6.63-.65,4.69-1.13,8.09-1.62,8.74-.49.65-2.43-3.07-3.56-3.56-1.13-.49-1.46-19.9-2.43-19.9s-2.91,5.99-2.91,7.28-.49,8.58-2.59,8.74c-2.1.16-4.53-.65-5.66.49s-4.05-12.46-6.15-8.74c-2.1,3.72-2.59,5.34-2.59,5.34l-3.24-5.34s-2.1-19.74-4.37-18.61c-2.27,1.13-1.94,7.61-1.94,8.25s1.13,2.59-1.29,5.5c-2.43,2.91-2.91,6.15-3.07,7.28-.16,1.13-1.78,3.4-1.78,3.4l-3.72-8.25s-2.75-11.65-3.07-12.3c-.32-.65-2.59-.49-1.94,5.5.65,5.99.16,8.74-1.29,9.71-1.46.97-6.63-4.85-6.63-4.85l-3.4-6.15s-2.43.16-2.1,5.99c.32,5.83-.81,9.22-1.13,10.19-.32.97-4.53-11.97-4.53-12.46s-4.05-5.66-4.37-6.47c-.32-.81,2.43-16.18-.81-14.24-3.24,1.94-3.24,8.41-2.91,9.87s1.46,9.55-1.13,10.84-3.88,4.05-4.05,5.34-3.24-8.58-3.24-8.58c0,0-5.18,0-6.47-2.27s-2.91-9.71-2.91-9.71c0,0-1.13-8.09-2.75-3.56s.16,8.25-1.13,10.36c-1.29,2.1-4.53,1.94-4.53,1.94l-4.05-5.5-9.55-9.71v114.51h337.13Z"/>
        <path class="st9" d="M1275.54,979.54s-12.75-8-14-12.25.75-8.25,0-12.75-.42-10.5-.42-10.5l-2.58-13s-.25,4.5-2.25,9.75-4.25,11.25-3.25,14.5-1.25,8-1.25,8c0,0,1,10-1.25,8s-3.75-7.25-3.75-7.25c0,0,1.75,7.75-1.5,6s-5-7-5-7c0,0-2.75,5-4,4s-6,0-7.5-3.25-4-12.25-7-14.75-4-9-5.75-9-2.25,11-3.5,13.25-3,7.75-3,7.75c0,0-2-6.75-3.25-10.5s-2-5.25-3-9.75-2.75-6.5-2.75-6.5c0,0-1.5,4-1.75,7s0,11.5,0,11.5l-.11,5.5s-7.89-6-8.14-12.5-3-7.5-3-7.5c0,0-2.75-4-4.25-5.75s-.75-16.25-2.25-18.25-3.5-11.5-3.5-11.5c0,0-2,10.5-2.5,16.5s-2,14-2,14l-3.75,12.75-4,4.25s-.25-3.25-2.25-12.25-2.75-11.75-2.75-12.5-2.25-20-4-22.75c0,0-.75,1-2,4.25s-3.25,7.75-3.25,9-1.25,10.25-1.25,10.25l-2,8s-3-4.5-3.5-8-2.25-10-2.5-10.75-2-22.25-2-22.25c0,0-5.25,8.75-6.75,18.75s-2,6.25-2.75,13.75-1.25,18.25-1.25,18.25c0,0-4-10.5-4.75-11.75s0-13.25,0-13.25c0,0,.83-16.5-.33-18.75-1.17-2.25-2.17,4-2.17,4,0,0-.75,10.5-4.5,15.25s-3,14.25-3,14.25l-2.75,10.5v6.5s-1.5-11-3.5-15.5-2-15.75-2-15.75c0,0-2.25,2.5-2.75,7s0,12,0,12c0,0-4,5.75-4,7.75,0,0-.75-9-2-9.88s-1,3.62-2.25,3.62-6-14.5-6-14.5l-1.25-5s.5.5,0,7.25,0,12.75,0,12.75l-4-2.75s-.75-10.75-2-11.5-1.25,6.75-1.75,8-3.5,2.25-3.75,10.5-1.75,12-1.75,12c0,0-4.5-4-5.25,2.5s-7,3.5-7,3.5c0,0-2.75,6.25-5,3.75s-7.5,5.75-9.25,2.75.5-5.5,0-9.5-1.5-6.25-2-9,0-12.5,0-12.5c0,0-3.5-1.75-3.5,4s.25,9.75-2,14.25l-3.75,7.5s-.25-4.25,0-9,1.28-10.25-.11-10.25-1.39,1-2.14,5.75-3.75,14.25-3.75,14.25c0,0-1-4.75-1.5-9s0-6.75,0-6.75c0,0-3.75.25-3.75,3.25s-2.25,11.25-2.25,11.25l-1.5,5.5s-3-5.5-2.25-9.25-.12-14.25-.12-14.25c0,0-3.13,2-3.13,6s.75,8.5,0,10-3,3.75-3,5.25v5.5s-7.75,3.75-7.75,4.5-1.75,4.75-1.75,4.75c0,0-6.75-.75-8-3.5s-4.75-11.75-4.75-11.75c0,0-.25,2.75-1.25,5.5s-.5,5.5-1.75,9.75-2,5-3,3.75-4-4.25-3-8.5-.25-1.75-1.25-8.75-1.5-11.75-1.5-11.75c0,0-3.25,3.75-4.25,10s2.25,8,0,11.75-4.25,5.59-4.25,7.8-1,4.95-1.5,3.7-1-7.75-3.25-10-1,4.5-1.75,5.25-4,3.75-4,3.75c0,0,1-4.75,0-8s.25-10,0-11.25-2.39-5.75-2.39-5.75c0,0-2.66,5.75-3.51,8.5-.85,2.75-3.64,0-3.5,4.75.15,4.75-1.35,12-2.35,11.75s-2.08-6-2.04-7.25c.04-1.25,1.71-2.75,0-8.5-1.71-5.75-3.79-9.25-3.75-10.25.04-1-.04,3,0,3.75.04.75-.47,10-.84,10.75-.37.75-1.12.5-2.37,8.75s-3,8.8-3.5,8.78c-.5-.03-1.24-13.53-1.24-13.53l-3.01-6.75s-1.61,13.5-4.18,13.5-5.62-5.25-5.72-6.25-6.1-7.25-6.6-12-1.25-7-1.25-7c0,0-4.92,8.5-4.46,13.5.46,5-2.06,13.75-2.06,13.75,0,0-6.24-4.75-8.23-11.5-1.99-6.75-5.21-15.25-5.21-15.25,0,0-4.81,14.75-3.54,17.25,1.26,2.5-8.22,7-7.23,10,.99,3-8.56,4.28-8.56,4.28l-5.45-6.53-4.25-12s-3.39,10.5-4.82,13.75c-1.43,3.25-4.36,9.22-4.36,9.22l-7.07-9.97-4.31-8.25s-3.23,10.25-2.71,12.5-2.48,4.68-2.48,5.47-3.5-1.12-3.5-1.12v-10.1l-3.25-9.25s-2.25,8.5-1.88,9.25c.38.75-1.37,7.03-1.37,7.03l-6.81,3.07-4.69,6.16s-.75-5.76-1.75-10.51,0-10.5,0-10.5c0,0-4.5,4.62-3.25,13.44s.5,13.44-1.25,15.38-4.75-.81-5.75,5.19-5.75,9.75-6.75,10.5-12.75,7.25-12.75,8-11,10-11,10h497.33l2.92-65.75Z"/>
      </g>
    </g>
  </g>
</svg>
